<?xml version="1.0" standalone="no"?>
<!DOCTYPE svg PUBLIC "-//W3C//DTD SVG 20010904//EN"
 "http://www.w3.org/TR/2001/REC-SVG-20010904/DTD/svg10.dtd">
<svg version="1.0" xmlns="http://www.w3.org/2000/svg"
 width="2083.000000pt" height="2083.000000pt" viewBox="0 0 2083.000000 2083.000000"
 preserveAspectRatio="xMidYMid meet">
<metadata>
Created by potrace 1.11, written by Peter Selinger 2001-2013
</metadata>
<g transform="translate(0.000000,2083.000000) scale(0.100000,-0.100000)"
fill="#000000" stroke="none">
<path d="M0 10415 l0 -10415 10415 0 10415 0 0 10415 0 10415 -10415 0 -10415
0 0 -10415z m9410 6232 c586 -72 1075 -237 1548 -522 593 -357 1101 -906 1412
-1525 443 -884 522 -1905 218 -2840 -156 -480 -370 -865 -712 -1279 l-59 -72
35 -37 c100 -105 298 -380 407 -566 494 -840 638 -1870 394 -2821 -326 -1275
-1293 -2284 -2554 -2665 -254 -76 -542 -129 -824 -150 -91 -6 -1035 -10 -2707
-10 l-2568 0 0 6255 0 6256 2638 -4 c2387 -3 2650 -5 2772 -20z m7090 -4367
l0 -4390 -48 30 c-198 121 -515 229 -812 275 -162 26 -514 31 -680 11 -314
-39 -648 -144 -897 -283 l-63 -35 0 4391 0 4391 1250 0 1250 0 0 -4390z
m-1050 -5000 c666 -82 1189 -555 1347 -1220 37 -157 43 -418 14 -589 -112
-654 -599 -1153 -1254 -1283 -133 -26 -403 -31 -527 -10 -356 62 -649 217
-892 471 -507 528 -576 1332 -167 1951 85 128 291 334 419 419 220 146 455
232 725 264 67 8 256 6 335 -3z"/>
<path d="M6500 12915 l0 -1245 1324 0 c1453 0 1403 -2 1590 61 320 107 575
333 727 644 140 286 163 612 67 915 -122 383 -427 689 -807 811 -187 60 -162
59 -1593 59 l-1308 0 0 -1245z"/>
<path d="M6500 7915 l0 -1245 1324 0 c1453 0 1403 -2 1590 61 320 107 575 333
727 644 140 286 163 612 67 915 -122 383 -427 689 -807 811 -187 60 -162 59
-1593 59 l-1308 0 0 -1245z"/>
</g>
</svg>
