<?xml version="1.0" standalone="no"?>
<!DOCTYPE svg PUBLIC "-//W3C//DTD SVG 20010904//EN"
 "http://www.w3.org/TR/2001/REC-SVG-20010904/DTD/svg10.dtd">
<svg version="1.0" xmlns="http://www.w3.org/2000/svg"
 width="1323.000000pt" height="1323.000000pt" viewBox="0 0 1323.000000 1323.000000"
 preserveAspectRatio="xMidYMid meet">
<metadata>
Created by potrace 1.11, written by Peter Selinger 2001-2013
</metadata>
<g transform="translate(0.000000,1323.000000) scale(0.100000,-0.100000)"
fill="#000000" stroke="none">
<path d="M0 6615 l0 -6615 6615 0 6615 0 0 6615 0 6615 -6615 0 -6615 0 0
-6615z m6128 3937 c501 -97 893 -296 1247 -634 368 -351 620 -830 700 -1328
95 -602 -36 -1208 -371 -1710 -36 -53 -73 -106 -82 -116 -9 -10 -33 -39 -52
-64 -19 -25 -42 -53 -52 -64 -16 -17 -12 -23 65 -120 277 -346 450 -759 508
-1211 16 -128 14 -448 -4 -580 -96 -697 -471 -1299 -1047 -1680 -130 -86 -311
-182 -440 -233 -178 -71 -437 -132 -635 -152 -73 -7 -667 -12 -1768 -13
l-1657 -2 0 3970 0 3970 1737 -6 c1734 -5 1738 -5 1851 -27z m4352 -2752 c0
-1529 -2 -2780 -4 -2780 -2 0 -48 22 -103 49 -174 86 -349 133 -569 152 -271
24 -569 -34 -817 -157 -49 -24 -90 -44 -93 -44 -2 0 -4 1252 -4 2783 l0 2782
795 -3 795 -2 0 -2780z m-540 -3199 c398 -104 683 -432 740 -852 30 -222 -42
-494 -184 -693 -54 -76 -176 -192 -253 -242 -168 -108 -312 -153 -513 -161
-148 -6 -237 7 -372 53 -308 105 -558 388 -634 719 -28 121 -26 331 5 450 96
374 386 654 761 736 119 26 330 21 450 -10z"/>
<path d="M4137 8994 c-4 -4 -7 -362 -7 -796 l0 -789 868 3 867 4 75 22 c423
130 664 558 549 974 -77 276 -295 488 -581 565 -56 15 -154 17 -913 20 -468 2
-854 1 -858 -3z"/>
<path d="M4132 5028 l3 -793 730 -3 c844 -3 981 2 1115 47 162 55 322 180 414
324 133 208 159 486 68 717 -94 238 -313 426 -561 480 -81 18 -136 20 -929 20
l-842 0 2 -792z"/>
</g>
</svg>
