<?xml version="1.0" encoding="utf-8"?>
<!-- Generator: Adobe Illustrator 24.0.2, SVG Export Plug-In . SVG Version: 6.00 Build 0)  -->
<svg version="1.1" id="Layer_1" xmlns="http://www.w3.org/2000/svg" xmlns:xlink="http://www.w3.org/1999/xlink" x="0px" y="0px"
	 viewBox="0 0 1024 598" style="enable-background:new 0 0 1024 598;" xml:space="preserve">
<path d="M28.4,274c-2.1,0-3.7,1.6-4,3.9l-7.2,55l7.2,54c0.3,2.3,1.9,3.9,4,3.9c2,0,3.6-1.6,3.9-3.8v0v0l8.6-54l-8.6-55
	C32,275.6,30.4,274,28.4,274L28.4,274z M69.1,243.9c-0.3-2.4-2-4-4.1-4c-2.1,0-3.8,1.7-4.1,4c0,0-9.7,88.9-9.7,88.9l9.7,86.9
	c0.3,2.3,2,4,4.1,4c2.1,0,3.8-1.6,4.1-4l11.1-86.9L69.1,243.9z M222.4,162c-4,0-7.3,3.3-7.5,7.4l-7.7,163.5l7.7,105.7
	c0.2,4.1,3.5,7.4,7.5,7.4c4,0,7.3-3.3,7.5-7.4v0l8.8-105.7l-8.8-163.5C229.6,165.2,226.4,162,222.4,162L222.4,162z M143,218.8
	c-3.1,0-5.6,2.4-5.8,5.7l-8.7,108.3l8.7,104.8c0.2,3.2,2.7,5.7,5.8,5.7c3,0,5.5-2.4,5.8-5.7l9.9-104.8l-9.9-108.4
	C148.6,221.2,146.1,218.8,143,218.8L143,218.8z M303,445.9c4.9,0,9-4,9.2-9.1l7.6-103.9l-7.6-217.7c-0.2-5.1-4.2-9.1-9.2-9.1
	c-5,0-9,4-9.2,9.1c0,0-6.7,217.7-6.7,217.7l6.7,103.9C294,441.9,298,445.9,303,445.9z M468.1,446.4c6.8,0,12.4-5.6,12.6-12.5v0.1
	v-0.1L486,333l-5.3-251.4c-0.1-6.9-5.7-12.5-12.6-12.5c-6.8,0-12.5,5.6-12.6,12.5l-4.7,251.3c0,0.2,4.7,101.1,4.7,101.1
	C455.6,440.8,461.3,446.4,468.1,446.4L468.1,446.4z M384.9,446c5.9,0,10.7-4.8,10.9-10.8v0.1l6.4-102.3l-6.5-219.3
	c-0.2-6.1-4.9-10.8-10.9-10.8c-6,0-10.7,4.7-10.9,10.8L368.3,333l5.7,102.3C374.2,441.3,379,446,384.9,446L384.9,446z M182.6,445.1
	c3.5,0,6.4-2.8,6.6-6.5l9.3-105.7l-9.3-100.5c-0.3-3.7-3.1-6.5-6.6-6.5c-3.6,0-6.4,2.8-6.7,6.6l-8.2,100.5l8.2,105.7
	C176.1,442.3,179,445.1,182.6,445.1L182.6,445.1z M103.8,439.3c2.6,0,4.7-2,5-4.8l10.5-101.6l-10.5-105.5c-0.3-2.8-2.4-4.9-5-4.9
	c-2.6,0-4.7,2-5,4.9c0,0-9.2,105.5-9.2,105.5l9.2,101.6C99.1,437.3,101.2,439.3,103.8,439.3L103.8,439.3z M426.3,110
	c-6.4,0-11.6,5.1-11.7,11.7L409.4,333l5.2,101.7c0.1,6.5,5.3,11.6,11.7,11.6c6.4,0,11.6-5.1,11.7-11.7v0.1l5.9-101.7l-5.9-211.3
	C437.9,115.2,432.8,110,426.3,110L426.3,110z M262.6,446.2c4.4,0,8.1-3.6,8.3-8.3l8.2-105L270.9,132c-0.2-4.6-3.9-8.3-8.3-8.3
	c-4.5,0-8.2,3.6-8.3,8.3c0,0-7.2,200.9-7.2,200.9l7.2,105C254.4,442.5,258.1,446.2,262.6,446.2z M353.8,436.3L353.8,436.3l7-103.3
	l-7-225c-0.2-5.6-4.6-10-10-10c-5.5,0-9.9,4.4-10,10l-6.2,225l6.2,103.3c0.1,5.5,4.6,9.9,10,9.9
	C349.3,446.2,353.6,441.8,353.8,436.3L353.8,436.3z M885.1,203.2c-16.7,0-32.6,3.4-47.1,9.5C828.3,103,736.3,16.9,624.1,16.9
	c-27.5,0-54.2,5.4-77.9,14.5c-9.2,3.6-11.6,7.2-11.7,14.3v386.3c0.1,7.5,5.9,13.7,13.1,14.4c0.3,0,335.2,0.2,337.4,0.2
	c67.2,0,121.7-54.5,121.7-121.7S952.3,203.2,885.1,203.2L885.1,203.2z M509.7,45.4c-7.3,0-13.3,6-13.4,13.4L490.7,333l5.5,99.5
	c0.1,7.3,6.1,13.3,13.4,13.3c7.3,0,13.3-6,13.4-13.4v0.1l6-99.5l-6-274.2C522.9,51.5,516.9,45.4,509.7,45.4L509.7,45.4z
	 M115.5,524.1c-14.4-3.4-18.3-5.2-18.3-10.9c0-4,3.2-8.2,13-8.2c8.3,0,14.8,3.4,20.6,9.3l13.1-12.7c-8.6-9-18.9-14.3-33.1-14.3
	c-17.9,0-32.5,10.1-32.5,26.6c0,17.9,11.7,23.2,28.4,27.1c17.1,3.9,20.2,6.5,20.2,12.3c0,6.9-5.1,9.9-15.8,9.9
	c-8.7,0-16.9-3-23.2-10.4l-13.1,11.7c6.9,10.1,20.1,16.5,35.3,16.5c24.8,0,35.7-11.7,35.7-28.9C145.8,532.4,129.9,527.5,115.5,524.1
	L115.5,524.1z M199.1,487.4c-24.8,0-39.4,19.2-39.4,46.8c0,27.6,14.7,46.8,39.4,46.8s39.5-19.2,39.5-46.8
	C238.5,506.6,223.8,487.4,199.1,487.4z M199.1,563c-14.7,0-20.8-12.6-20.8-28.8c0-16.2,6.1-28.8,20.8-28.8
	c14.7,0,20.8,12.6,20.8,28.8C219.8,550.5,213.7,563,199.1,563z M311.8,539.8c0,14.5-7.2,23.5-18.7,23.5c-11.5,0-18.6-9.2-18.6-23.7
	v-50.8h-18.2v51c0,26.5,14.8,41.3,36.7,41.3c23.1,0,36.9-15.2,36.9-41.5v-50.8h-18.2L311.8,539.8z M408.4,527.2
	c0,5.1,0.3,16.5,0.3,19.8c-1.2-2.3-4.2-6.9-6.4-10.3l-32.2-48h-17.4v90.8h17.9v-40c0-5.1-0.3-16.5-0.3-19.8
	c1.2,2.3,4.2,6.9,6.4,10.3l33.4,49.6h16.2v-90.8h-17.9L408.4,527.2z M478.1,488.8h-28.4v90.8h27.1c23.4,0,46.5-13.5,46.5-45.4
	C523.2,501,504,488.8,478.1,488.8L478.1,488.8z M476.7,562h-8.9v-55.5h9.6c19.2,0,27.1,9.2,27.1,27.8
	C504.5,550.8,495.8,562,476.7,562z M579.4,505.4c8.2,0,13.4,3.6,16.6,9.9l16.9-7.8c-5.7-11.8-16.1-20.1-33.2-20.1
	c-23.7,0-40.3,19.2-40.3,46.8c0,28.7,16,46.8,39.7,46.8c16.5,0,27.4-7.7,33.6-20.5l-15.3-9.1c-4.8,8.1-9.6,11.6-17.8,11.6
	c-13.6,0-21.5-12.5-21.5-28.8C558,517.4,565.8,505.4,579.4,505.4z M646.8,488.8h-18.2v90.8h54.6v-17.9h-36.4V488.8z M731.1,487.4
	c-24.8,0-39.5,19.2-39.5,46.8s14.7,46.8,39.5,46.8c24.8,0,39.4-19.2,39.4-46.8S755.9,487.4,731.1,487.4z M731.1,563
	c-14.7,0-20.8-12.6-20.8-28.8c0-16.2,6.1-28.8,20.8-28.8c14.6,0,20.7,12.6,20.7,28.8C751.8,550.5,745.7,563,731.1,563z M843.8,539.8
	c0,14.5-7.1,23.5-18.7,23.5c-11.6,0-18.6-9.2-18.6-23.7v-50.8h-18.2v51c0,26.5,14.8,41.3,36.7,41.3c23.1,0,36.8-15.2,36.8-41.5
	v-50.8h-18.2L843.8,539.8z M913.1,488.8h-28.4v90.8h27.1c23.4,0,46.5-13.5,46.5-45.4C958.3,501,939.1,488.8,913.1,488.8L913.1,488.8
	z M911.8,562h-9v-55.5h9.6c19.2,0,27.1,9.2,27.1,27.8C939.6,550.8,930.9,562,911.8,562L911.8,562z"/>
</svg>
