<?xml version="1.0" encoding="utf-8"?>
<!-- Generator: Adobe Illustrator 19.2.1, SVG Export Plug-In . SVG Version: 6.00 Build 0)  -->
<svg version="1.1" id="Logo--white" xmlns="http://www.w3.org/2000/svg" xmlns:xlink="http://www.w3.org/1999/xlink" x="0px"
	 y="0px" viewBox="0 0 307.9 300" style="enable-background:new 0 0 307.9 300;" xml:space="preserve">
<style type="text/css">
	.st0{fill:#FFFFFF;}
</style>
<g>
	<path class="st0" d="M210.4,90c0-49.7-40.3-90-90-90H0v300h120.4c49.7,0,90-40.3,90-90c0-23.1-8.7-44.1-22.9-60
		C201.7,134.1,210.4,113.1,210.4,90z M120.4,240H60v-60h60.4c16.6,0,30,13.4,30,30S136.9,240,120.4,240z M120.4,120H60V60h60.4
		c16.6,0,30,13.4,30,30S136.9,120,120.4,120z"/>
	<path class="st0" d="M270,202.5c10.9,0,22,2.9,30,8V0h-60v210.5C249,205.4,259.1,202.5,270,202.5z"/>
	<circle class="st0" cx="270.4" cy="262.5" r="37.5"/>
</g>
</svg>
